<?xml version="1.0" encoding="UTF-8" standalone="no"?>
<!DOCTYPE svg PUBLIC "-//W3C//DTD SVG 1.1//EN" "http://www.w3.org/Graphics/SVG/1.1/DTD/svg11.dtd">
<svg width="100%" height="100%" viewBox="0 0 513 513" version="1.1" xmlns="http://www.w3.org/2000/svg" xmlns:xlink="http://www.w3.org/1999/xlink" xml:space="preserve" xmlns:serif="http://www.serif.com/" style="fill-rule:evenodd;clip-rule:evenodd;stroke-linejoin:round;stroke-miterlimit:2;">
    <path d="M452.603,178.111L356.467,178.111C343.999,178.111 333.892,168.003 333.892,155.536L333.892,59.399C333.892,46.931 323.784,36.824 311.317,36.824L200.685,36.824C188.217,36.824 178.11,46.932 178.11,59.399L178.11,155.535C178.11,168.003 168.002,178.11 155.535,178.11L59.399,178.11C46.931,178.11 36.824,188.218 36.824,200.685L36.824,311.316C36.824,323.784 46.932,333.891 59.399,333.891L155.535,333.891C168.003,333.891 178.11,343.999 178.11,356.466L178.11,452.602C178.11,465.07 188.218,475.177 200.685,475.177L311.316,475.177C323.784,475.177 333.891,465.069 333.891,452.602L333.891,356.466C333.891,343.998 343.999,333.891 356.466,333.891L452.602,333.891C465.07,333.891 475.177,323.783 475.177,311.316L475.177,200.686C475.178,188.218 465.07,178.111 452.603,178.111Z" style="fill:rgb(0,85,149);fill-rule:nonzero;"/>
    <path d="M500.712,258.574L486.464,258.574L486.464,200.686C486.464,182.013 471.272,166.823 452.601,166.823L356.465,166.823C350.24,166.823 345.177,161.76 345.177,155.535L345.177,59.399C345.177,40.726 329.985,25.536 311.314,25.536L200.684,25.536C182.013,25.536 166.821,40.726 166.821,59.399L166.821,155.535C166.821,161.76 161.758,166.823 155.533,166.823L59.399,166.823C40.728,166.823 25.536,182.013 25.536,200.686L25.536,258.574L11.288,258.574C5.054,258.574 0,263.627 0,269.861C0,276.095 5.054,281.149 11.288,281.149L25.536,281.149L25.536,311.316C25.536,329.989 40.728,345.179 59.399,345.179L155.535,345.179C161.76,345.179 166.823,350.242 166.823,356.467L166.823,452.603C166.823,471.276 182.015,486.466 200.686,486.466L311.317,486.466C329.988,486.466 345.18,471.276 345.18,452.603L345.18,356.467C345.18,350.242 350.243,345.179 356.468,345.179L452.604,345.179C471.275,345.179 486.467,329.989 486.467,311.316L486.467,281.149L500.715,281.149C506.949,281.149 512.003,276.095 512.003,269.861C512,263.627 506.948,258.574 500.712,258.574ZM48.111,200.686C48.111,194.461 53.174,189.398 59.399,189.398L155.535,189.398C174.206,189.398 189.398,174.208 189.398,155.535L189.398,59.399C189.398,53.174 194.461,48.111 200.686,48.111L311.317,48.111C317.542,48.111 322.605,53.174 322.605,59.399L322.605,155.535C322.605,174.208 337.797,189.398 356.468,189.398L452.604,189.398C458.829,189.398 463.892,194.461 463.892,200.686L463.892,258.574L388.983,258.574C386.39,258.574 383.876,259.466 381.866,261.101L354.574,283.274L299.835,205.839C294.667,198.525 283.451,199.884 280.137,208.163L235.519,319.709L205.197,207.162C203.046,199.188 193.34,196.168 187.045,201.449L118.916,258.575L48.111,258.575L48.111,200.686ZM463.891,311.317C463.891,317.542 458.828,322.605 452.603,322.605L356.467,322.605C337.796,322.605 322.604,337.795 322.604,356.468L322.604,452.604C322.604,458.829 317.541,463.892 311.316,463.892L200.685,463.892C194.46,463.892 189.397,458.829 189.397,452.604L189.397,356.468C189.397,337.795 174.205,322.605 155.534,322.605L59.399,322.605C53.174,322.605 48.111,317.542 48.111,311.317L48.111,281.15L123.02,281.15C125.673,281.15 128.241,280.215 130.273,278.512L187.997,230.111L222.525,358.271C225.342,368.725 239.876,369.601 243.905,359.526L293.384,235.828L343.104,306.164C346.874,311.499 354.377,312.523 359.439,308.409L392.989,281.152L463.889,281.152L463.889,311.317L463.891,311.317Z" style="fill:rgb(8,158,154);fill-rule:nonzero;"/>
</svg>
