<?xml version="1.0" encoding="UTF-8" standalone="no"?>
<!DOCTYPE svg PUBLIC "-//W3C//DTD SVG 1.1//EN" "http://www.w3.org/Graphics/SVG/1.1/DTD/svg11.dtd">
<svg width="100%" height="100%" viewBox="0 0 163 145" version="1.1" xmlns="http://www.w3.org/2000/svg" xmlns:xlink="http://www.w3.org/1999/xlink" xml:space="preserve" xmlns:serif="http://www.serif.com/" style="fill-rule:evenodd;clip-rule:evenodd;stroke-linejoin:round;stroke-miterlimit:2;">
    <g>
        <path d="M99.7,93.2L60.3,45L107.5,6.5C137.4,-17.3 176.2,30.2 146.9,54.7L99.7,93.2Z" style="fill:rgb(0,85,149);fill-rule:nonzero;"/>
        <path d="M32.6,139.8C25.9,139.8 19.4,137.4 13.7,132.9C8.4,128.7 4.1,122.9 1.9,116.6C-2.5,104.4 0.8,92.2 10.8,83.9L56.1,47.2L96,96.5L50.7,133.2C45.2,137.5 39,139.8 32.6,139.8ZM15.5,89.8C8.1,96 5.7,104.9 9,114.1C12.8,124.7 22.7,132.3 32.6,132.3C37.3,132.3 41.8,130.7 46,127.4L85.4,95.4L54.9,57.9L15.5,89.8Z" style="fill:rgb(8,158,154);fill-rule:nonzero;"/>
        <path d="M142.4,62.7C140.4,64.7 138,66.6 135.7,68.3C152.1,77.2 159.2,97.3 151.9,114.7C144,133.2 122.5,141.9 104,134C93.5,129.5 86.2,120.7 83.3,110.5C80.7,111.5 78.6,113.9 76.2,115.6C80.3,126.8 88.9,136.5 100.7,141.5C123.5,151.2 149.8,140.5 159.5,117.9C168.1,97.5 160.4,74.3 142.4,62.7Z" style="fill:rgb(0,85,149);fill-rule:nonzero;"/>
        <path d="M146.8,105.5L108.2,89C104.8,92 102.6,96 99.6,99.3L141.8,117.2C144.1,118.2 146.7,117.1 147.7,114.8L149.2,111.3C150.1,109.1 149.1,106.5 146.8,105.5Z" style="fill:rgb(0,85,149);fill-rule:nonzero;"/>
    </g>
    <g>
        <path d="M91.2,122.9C91.2,111.5 82.2,102.2 71,102.2C59.9,102.2 50.8,111.5 50.8,122.9C50.8,134.3 59.8,143.6 71,143.6C82.2,143.6 91.2,134.3 91.2,122.9" style="fill:rgb(203,60,39);fill-rule:nonzero;"/>
        <g transform="matrix(1.34642,0,0,1.34642,-24.8919,-46.1514)">
            <path d="M74.6,122.9L71.2,119.4L67.7,122.9L62.3,128.6L65.7,132.1L71.2,126.5L76.7,132.1L80.1,128.6L74.6,122.9Z" style="fill:white;fill-rule:nonzero;"/>
        </g>
    </g>
</svg>
